REM DIRINDEX 1\5,1\2\6,1\2\7,1\3\8,1\3\9,1\4\10,1\4\11,1\4\12
REM DIRNAME cjc026,folder01,folder02,folder03,folder04,folder05,folder06,folder07,folder08,folder09,folder10,folder11
TITLE ""
FILE "JE_DB3000_5th_4B_44.mp3" MP3
  TRACK 01 AUDIO
    TITLE "0:"
    INDEX 01 00:00:00
  TRACK 02 AUDIO
    TITLE "6:cjc026_01935"
    INDEX 01 00:00:08
  TRACK 03 AUDIO
    TITLE "0:"
    INDEX 01 00:01:54
  TRACK 04 AUDIO
    TITLE "7:cjc026_01936"
    INDEX 01 00:02:14
  TRACK 05 AUDIO
    TITLE "0:"
    INDEX 01 00:03:26
  TRACK 06 AUDIO
    TITLE "6:cjc026_01937"
    INDEX 01 00:03:63
  TRACK 07 AUDIO
    TITLE "0:"
    INDEX 01 00:05:35
  TRACK 08 AUDIO
    TITLE "7:cjc026_01938"
    INDEX 01 00:05:67
  TRACK 09 AUDIO
    TITLE "0:"
    INDEX 01 00:07:15
  TRACK 10 AUDIO
    TITLE "6:cjc026_01939"
    INDEX 01 00:07:50
  TRACK 11 AUDIO
    TITLE "0:"
    INDEX 01 00:09:21
  TRACK 12 AUDIO
    TITLE "7:cjc026_01940"
    INDEX 01 00:09:59
  TRACK 13 AUDIO
    TITLE "0:"
    INDEX 01 00:11:03
  TRACK 14 AUDIO
    TITLE "6:cjc026_01941"
    INDEX 01 00:11:41
  TRACK 15 AUDIO
    TITLE "0:"
    INDEX 01 00:13:15
  TRACK 16 AUDIO
    TITLE "7:cjc026_01942"
    INDEX 01 00:13:51
  TRACK 17 AUDIO
    TITLE "0:"
    INDEX 01 00:15:00
  TRACK 18 AUDIO
    TITLE "6:cjc026_01943"
    INDEX 01 00:15:38
  TRACK 19 AUDIO
    TITLE "0:"
    INDEX 01 00:16:58
  TRACK 20 AUDIO
    TITLE "7:cjc026_01944"
    INDEX 01 00:17:18
  TRACK 21 AUDIO
    TITLE "0:"
    INDEX 01 00:18:35
  TRACK 22 AUDIO
    TITLE "6:cjc026_01945"
    INDEX 01 00:18:72
  TRACK 23 AUDIO
    TITLE "0:"
    INDEX 01 00:20:39
  TRACK 24 AUDIO
    TITLE "7:cjc026_01946"
    INDEX 01 00:20:74
  TRACK 25 AUDIO
    TITLE "0:"
    INDEX 01 00:22:13
  TRACK 26 AUDIO
    TITLE "6:cjc026_01947"
    INDEX 01 00:22:51
  TRACK 27 AUDIO
    TITLE "0:"
    INDEX 01 00:24:25
  TRACK 28 AUDIO
    TITLE "7:cjc026_01948"
    INDEX 01 00:24:63
  TRACK 29 AUDIO
    TITLE "0:"
    INDEX 01 00:26:10
  TRACK 30 AUDIO
    TITLE "6:cjc026_01949"
    INDEX 01 00:26:45
  TRACK 31 AUDIO
    TITLE "0:"
    INDEX 01 00:28:00
  TRACK 32 AUDIO
    TITLE "7:cjc026_01950"
    INDEX 01 00:28:35
  TRACK 33 AUDIO
    TITLE "0:"
    INDEX 01 00:29:55
  TRACK 34 AUDIO
    TITLE "6:cjc026_01951"
    INDEX 01 00:30:15
  TRACK 35 AUDIO
    TITLE "0:"
    INDEX 01 00:31:53
  TRACK 36 AUDIO
    TITLE "7:cjc026_01952"
    INDEX 01 00:32:11
  TRACK 37 AUDIO
    TITLE "0:"
    INDEX 01 00:33:38
  TRACK 38 AUDIO
    TITLE "6:cjc026_01953"
    INDEX 01 00:33:73
  TRACK 39 AUDIO
    TITLE "0:"
    INDEX 01 00:35:07
  TRACK 40 AUDIO
    TITLE "7:cjc026_01954"
    INDEX 01 00:35:45
  TRACK 41 AUDIO
    TITLE "0:"
    INDEX 01 00:36:70
  TRACK 42 AUDIO
    TITLE "6:cjc026_01955"
    INDEX 01 00:37:30
  TRACK 43 AUDIO
    TITLE "0:"
    INDEX 01 00:38:55
  TRACK 44 AUDIO
    TITLE "7:cjc026_01956"
    INDEX 01 00:39:15
  TRACK 45 AUDIO
    TITLE "0:"
    INDEX 01 00:40:34
  TRACK 46 AUDIO
    TITLE "6:cjc026_01957"
    INDEX 01 00:40:69
  TRACK 47 AUDIO
    TITLE "0:"
    INDEX 01 00:42:19
  TRACK 48 AUDIO
    TITLE "7:cjc026_01958"
    INDEX 01 00:42:54
  TRACK 49 AUDIO
    TITLE "0:"
    INDEX 01 00:43:71
  TRACK 50 AUDIO
    TITLE "6:cjc026_01959"
    INDEX 01 00:44:31
  TRACK 51 AUDIO
    TITLE "0:"
    INDEX 01 00:46:22
  TRACK 52 AUDIO
    TITLE "7:cjc026_01960"
    INDEX 01 00:46:57
  TRACK 53 AUDIO
    TITLE "0:"
    INDEX 01 00:48:12
  TRACK 54 AUDIO
    TITLE "6:cjc026_01961"
    INDEX 01 00:48:47
  TRACK 55 AUDIO
    TITLE "0:"
    INDEX 01 00:50:30
  TRACK 56 AUDIO
    TITLE "7:cjc026_01962"
    INDEX 01 00:50:65
  TRACK 57 AUDIO
    TITLE "0:"
    INDEX 01 00:52:23
  TRACK 58 AUDIO
    TITLE "6:cjc026_01963"
    INDEX 01 00:52:58
  TRACK 59 AUDIO
    TITLE "0:"
    INDEX 01 00:54:48
  TRACK 60 AUDIO
    TITLE "7:cjc026_01964"
    INDEX 01 00:55:11
  TRACK 61 AUDIO
    TITLE "0:"
    INDEX 01 00:56:39
